v -0.500000 -0.500000 0.500000
v -0.500000 0.500000 0.500000
v -0.500000 -0.500000 -0.500000
v -0.500000 0.500000 -0.500000
v 0.500000 -0.500000 0.500000
v 0.500000 0.500000 0.500000
v 0.500000 -0.500000 -0.500000
v 0.500000 0.500000 -0.500000
vt 0.000000 0.000000
vt 0.000000 5.000000
vt 5.000000 0.000000
vt 5.000000 5.000000
vn -1.0000 0.0000 0.0000
vn 0.0000 0.0000 -1.0000
vn 1.0000 0.0000 0.0000
vn 0.0000 0.0000 1.0000
vn 0.0000 -1.0000 0.0000
vn 0.0000 1.0000 0.0000
s off
f 2/4/1 3/1/1 1/3/1 
f 4/4/2 7/1/2 3/2/2
f 8/4/3 5/1/3 7/3/3
f 6/4/4 1/1/4 5/3/4
f 7/3/5 1/2/5 3/1/5
f 4/2/6 6/3/6 8/4/6
f 2/4/1 4/2/1 3/1/1
f 4/4/2 8/3/2 7/1/2
f 8/4/3 6/2/3 5/1/3
f 6/4/4 2/2/4 1/1/4
f 7/3/5 5/4/5 1/2/5
f 4/2/6 2/1/6 6/3/6
